<svg width="32" height="32" viewBox="0 0 32 32" fill="none" xmlns="http://www.w3.org/2000/svg">
<path d="M9.66669 8.66666C10.2334 8.66666 10.6667 8.23332 10.6667 7.66666V5.66666C10.6667 5.09999 10.2334 4.66666 9.66669 4.66666C9.10002 4.66666 8.66669 5.09999 8.66669 5.66666V7.66666C8.66669 8.23332 9.10002 8.66666 9.66669 8.66666Z" fill="white"/>
<path d="M6.66669 22.6667H12V25.3333H6.66669V22.6667ZM6.66669 18.6667H12V21.3333H6.66669V18.6667ZM6.66669 14.6667H12V17.3333H6.66669V14.6667ZM18.6667 14.6667V17.3333H13.3334V14.6667H18.6667ZM25.3334 14.6667V17.3333H20V14.6667H25.3334ZM25.3334 21.3333H20V18.6667H25.3334V21.3333ZM25.3334 25.3333H20V22.6667H25.3334V25.3333ZM13.3334 21.3333V18.6667H18.6667V21.3333H13.3334ZM13.3334 25.3333V22.6667H18.6667V25.3333H13.3334ZM4.66669 27.3333H27.3334V12.6667H4.66669V27.3333Z" fill="white"/>
<path d="M22.3334 8.66666C22.9 8.66666 23.3334 8.23332 23.3334 7.66666V5.66666C23.3334 5.09999 22.9 4.66666 22.3334 4.66666C21.7667 4.66666 21.3334 5.09999 21.3334 5.66666V7.66666C21.3334 8.23332 21.7667 8.66666 22.3334 8.66666Z" fill="white"/>
<path d="M24.6667 6.66666V7.66666C24.6667 8.96666 23.6334 9.99999 22.3334 9.99999C21.0334 9.99999 20 8.96666 20 7.66666V6.66666H12V7.66666C12 8.96666 10.9667 9.99999 9.66669 9.99999C8.36669 9.99999 7.33335 8.96666 7.33335 7.66666V6.66666H4.66669V11.3333H27.3334V6.66666H24.6667Z" fill="white"/>
</svg>
