<svg width="32" height="32" viewBox="0 0 32 32" fill="none" xmlns="http://www.w3.org/2000/svg">
<path d="M16.016 16.2336C18.56 16.2336 20.6208 14.176 20.6208 11.6352C20.6208 9.0976 18.56 7.0368 16.016 7.0368C13.472 7.0368 11.4112 9.0944 11.4112 11.6352C11.4112 14.176 13.4752 16.2336 16.016 16.2336ZM20.0864 16.9536L19.7152 16.9504C19.5872 16.9504 19.392 16.9984 19.2768 17.0592C19.2768 17.0592 18.9824 17.2288 18.7136 17.344C17.9104 17.6896 16.9952 17.888 16.0256 17.888C15.0592 17.888 14.1472 17.6928 13.3472 17.3504C13.0752 17.232 12.7744 17.0592 12.7744 17.0592C12.6624 16.9984 12.4672 16.9472 12.336 16.9472L11.9712 16.9504C10.5024 17.1424 8.96001 18.4448 8.51841 19.856C8.51841 19.856 8.04801 20.8064 7.98081 22.6752C7.97441 22.816 7.98081 22.6752 7.98081 22.6752C7.97761 22.9184 8.17281 23.2288 8.42561 23.36C8.42561 23.36 10.9248 24.9632 16.0128 24.9632C21.1008 24.9632 23.6 23.3568 23.6 23.3568C23.8496 23.2224 24.048 22.8832 24.0416 22.6688C24.0416 22.6688 24.048 22.8096 24.0416 22.6688C23.9776 20.8096 23.52 19.8976 23.52 19.8976C23.1168 18.48 21.5488 17.168 20.0864 16.9536Z" fill="white"/>
<path d="M20.2048 15.8528C20.6976 15.4624 21.2768 15.184 21.84 15.1104L22.0928 15.1072C22.2208 15.1072 22.4192 15.1552 22.5312 15.2192C22.5312 15.2192 22.7392 15.3376 22.96 15.4336C23.6128 15.712 24.3552 15.872 25.1424 15.872C25.9328 15.872 26.6784 15.712 27.3344 15.4304C27.552 15.3344 27.7536 15.2192 27.7536 15.2192C27.8656 15.1584 28.0608 15.1072 28.192 15.1104L28.4512 15.1136C29.6448 15.2896 30.9216 16.3552 31.2544 17.5136C31.2544 17.5136 31.6256 18.256 31.68 19.7696C31.6832 19.8848 31.68 19.7696 31.68 19.7696C31.6832 19.9008 31.4848 20.2368 31.2352 20.3712C31.2352 20.3712 29.2832 21.6352 25.1392 21.6352C25.072 21.6352 25.0048 21.6352 24.9408 21.6352C24.9568 21.4688 24.9632 21.2992 24.9632 21.1296C24.96 18.384 22.8768 16.128 20.2048 15.8528ZM25.136 14.528C27.2096 14.528 28.8896 12.8512 28.8896 10.784C28.8896 8.71681 27.2096 7.04001 25.136 7.04001C23.0624 7.04001 21.3824 8.71681 21.3824 10.784C21.3824 12.8512 23.0624 14.528 25.136 14.528Z" fill="white"/>
<path d="M11.7952 15.8528C11.3024 15.4624 10.7232 15.184 10.16 15.1104L9.90719 15.1072C9.77919 15.1072 9.58079 15.1552 9.46879 15.2192C9.46879 15.2192 9.26079 15.3376 9.03999 15.4336C8.38719 15.712 7.64479 15.872 6.8576 15.872C6.0672 15.872 5.3216 15.712 4.6656 15.4304C4.448 15.3344 4.24639 15.2192 4.24639 15.2192C4.13439 15.1584 3.93919 15.1072 3.80799 15.1104L3.54879 15.1136C2.3552 15.2896 1.0784 16.3552 0.745595 17.5136C0.745595 17.5136 0.374395 18.256 0.319995 19.7696C0.316795 19.8848 0.319995 19.7696 0.319995 19.7696C0.316795 19.9008 0.515195 20.2368 0.764795 20.3712C0.764795 20.3712 2.7168 21.6352 6.86079 21.6352C6.92799 21.6352 6.9952 21.6352 7.0592 21.6352C7.0432 21.4688 7.03679 21.2992 7.03679 21.1296C7.03999 18.384 9.12319 16.128 11.7952 15.8528ZM6.86399 14.528C4.79039 14.528 3.11039 12.8512 3.11039 10.784C3.11039 8.71681 4.79039 7.04001 6.86399 7.04001C8.93759 7.04001 10.6176 8.71681 10.6176 10.784C10.6176 12.8512 8.93759 14.528 6.86399 14.528Z" fill="white"/>
</svg>
