<svg width="32" height="32" viewBox="0 0 32 32" fill="none" xmlns="http://www.w3.org/2000/svg">
<g clip-path="url(#clip0_1_22)">
<path d="M31.68 29.7216V31.68H0.320007V0.320007H2.28161V29.7216H31.68ZM14.3392 11.2064L22.3456 13.2064L25.12 8.58881L27.632 10.096L27.7632 2.27841L20.9248 6.07361L23.4368 7.58081L21.4144 10.9536L13.7408 9.03361L5.50721 17.2672L6.89281 18.6528L14.3392 11.2064ZM12.08 27.76H16V13.6384L14.9408 13.3728L12.08 16.2336V27.76ZM6.20161 20.7328V27.76H10.1216V18.1984L6.89281 21.424L6.20161 20.7328ZM23.84 14.5312V27.76H27.76V12.4608L25.792 11.28L23.84 14.5312ZM21.8816 27.76V15.1104L17.9616 14.1312V27.76H21.8816Z" fill="white"/>
</g>
<defs>
<clipPath id="clip0_1_22">
<rect width="32" height="32" fill="white"/>
</clipPath>
</defs>
</svg>
