<svg width="32" height="32" viewBox="0 0 32 32" fill="none" xmlns="http://www.w3.org/2000/svg">
<path d="M17.4557 5.74304C13.5152 5.74304 10.3094 8.94944 10.3094 12.8899C10.3094 16.6832 16.7933 25.5453 17.0694 25.9206L17.327 26.2714C17.3571 26.3126 17.4051 26.3366 17.4557 26.3366C17.5069 26.3366 17.5546 26.3126 17.585 26.2714L17.8426 25.9206C18.1187 25.5453 24.6026 16.6832 24.6026 12.8899C24.6026 8.94944 21.3962 5.74304 17.4557 5.74304ZM17.4557 10.3299C18.8675 10.3299 20.0157 11.4781 20.0157 12.8899C20.0157 14.3011 18.8675 15.4499 17.4557 15.4499C16.0445 15.4499 14.8957 14.3011 14.8957 12.8899C14.8957 11.4781 16.0445 10.3299 17.4557 10.3299Z" fill="white"/>
</svg>
