<svg width="32" height="32" viewBox="0 0 32 32" fill="none" xmlns="http://www.w3.org/2000/svg">
<path d="M8.66669 17.3333C8.66669 13.3 11.9667 10 16 10C20.0334 10 23.3334 13.3 23.3334 17.3333C23.3334 21.3667 20.0334 24.6667 16 24.6667C11.9667 24.6667 8.66669 21.3667 8.66669 17.3333ZM16.6667 8.03334V6.66668H18C18.3667 6.66668 18.6667 6.36668 18.6667 6.00001C18.6667 5.63334 18.3667 5.33334 18 5.33334H14C13.6334 5.33334 13.3334 5.63334 13.3334 6.00001C13.3334 6.36668 13.6334 6.66668 14 6.66668H15.3334V8.03334C10.5 8.36668 6.66669 12.4 6.66669 17.3333C6.66669 19.8667 7.66669 22.1667 9.33335 23.8667L8.06669 26.3667C7.90002 26.7 8.03335 27.1 8.36669 27.2667C8.46669 27.3 8.56669 27.3333 8.66669 27.3333C8.90002 27.3333 9.13335 27.2 9.26669 26.9667L10.3667 24.7667C11.9334 25.9667 13.8667 26.6667 16 26.6667C18.1334 26.6667 20.0667 25.9667 21.6334 24.7667L22.7334 26.9667C22.8667 27.2 23.1 27.3333 23.3334 27.3333C23.4334 27.3333 23.5334 27.3 23.6334 27.2667C23.9667 27.1 24.1 26.7 23.9334 26.3667L22.6667 23.8667C24.3 22.2 25.3334 19.8667 25.3334 17.3333C25.3334 12.4 21.5 8.36668 16.6667 8.03334Z" fill="white"/>
<path d="M15.3334 16.6667H10.6667V18H16C16.3667 18 16.6667 17.7 16.6667 17.3333V12H15.3334V16.6667Z" fill="white"/>
<path d="M26.7333 8.06666L23.9666 5.29999C23.4333 4.76666 22.6 4.76666 22.0666 5.29999L20.3333 6.99999L25 11.6667L26.7333 9.93333C27.2333 9.43333 27.2333 8.56666 26.7333 8.06666Z" fill="white"/>
<path d="M11.6666 7L9.9333 5.26667C9.39997 4.73334 8.56664 4.73334 8.0333 5.26667L5.26664 8.03334C4.7333 8.56667 4.7333 9.4 5.26664 9.93333L6.99997 11.6667L11.6666 7Z" fill="white"/>
</svg>
