<svg width="32" height="32" viewBox="0 0 32 32" fill="none" xmlns="http://www.w3.org/2000/svg">
<g clip-path="url(#clip0_1_17)">
<path d="M25.7274 2.13822L23.9066 3.95902L23.9139 5.48734L23.9287 7.0083L19.3143 11.6153C16.689 14.2333 14.656 16.3248 14.5978 16.4566C14.3639 16.9977 14.9123 17.6192 15.4679 17.4365C15.6067 17.3853 15.9872 17.0781 16.36 16.6979C17.0912 15.9593 17.1133 15.9667 17.1203 16.72C17.1277 17.4294 16.7987 17.9997 16.1843 18.3286C15.4167 18.7526 14.5975 18.6358 13.9834 18.0214C13.4496 17.4877 13.3107 16.9174 13.4787 15.9958C13.6397 15.1037 13.7859 14.9209 16.0163 12.6685L18.0931 10.5699L17.6688 10.4089C16.8352 10.1017 16.3232 10.0141 15.2995 10.0141C14.5245 10.0141 14.1735 10.0505 13.6688 10.175C11.3143 10.76 9.50081 12.5222 8.78401 14.9062C8.56449 15.6448 8.51361 17.1878 8.68161 18.0214C8.94497 19.3232 9.50049 20.3981 10.4147 21.3488C11.6871 22.6723 13.113 23.3232 14.9194 23.4038C16.3235 23.4694 17.3399 23.2429 18.5098 22.6141C20.4256 21.583 21.6835 19.7037 21.9687 17.4659C22.0711 16.6397 21.976 15.5648 21.7347 14.7603C21.5447 14.1606 21.0912 13.2246 20.784 12.8006L20.5645 12.5008L21.0765 11.9814L21.5955 11.4694L21.8442 11.7619C22.4803 12.5078 23.0947 13.8825 23.3434 15.0893C23.5699 16.1641 23.5191 17.7949 23.241 18.8185C22.3267 22.1238 19.5626 24.5005 16.1696 24.8953C14.5463 25.0781 13.0471 24.7929 11.497 24.0032C10.6343 23.5571 9.99041 23.0819 9.32513 22.3798C8.66689 21.6851 8.27937 21.1149 7.83329 20.1785C5.93185 16.1785 7.61377 11.3597 11.6211 9.35582C12.9373 8.69758 14.0563 8.46366 15.6503 8.52958C16.8202 8.57342 17.5223 8.72702 18.5242 9.16574L19.2115 9.45822L20.0451 8.62462L20.8714 7.79102L19.9719 7.3523C18.2752 6.52606 17.1856 6.27742 15.2259 6.28478C14.1216 6.28478 13.7415 6.3139 13.1783 6.43838C11.0576 6.91358 9.41217 7.80574 7.90593 9.30494C6.63361 10.5773 5.90241 11.7475 5.35393 13.4C4.49089 15.9667 4.66657 18.7821 5.82209 21.2025C7.32865 24.3469 10.1219 26.4531 13.5808 27.0601C14.4509 27.2064 16.0746 27.2064 17.0176 27.0528C17.8659 26.9139 19.2259 26.4752 19.9575 26.1094C21.3104 25.4294 22.7728 24.1936 23.6723 22.9942C24.5498 21.8169 25.2592 20.2153 25.5882 18.6726C25.7856 17.7219 25.7709 15.6013 25.5517 14.5993C25.3543 13.6998 25.0323 12.7565 24.6595 12.0105C24.3376 11.3817 23.5847 10.2189 23.3504 10.0141L23.1895 9.86782L24.089 8.9683L24.9885 8.06878H26.5242H28.0599L29.8733 6.25534C30.8679 5.26078 31.6797 4.42718 31.6797 4.3907C31.6797 4.36126 30.7728 4.3395 29.6688 4.3395H27.6579V2.32862C27.6579 1.2243 27.6362 0.317737 27.5994 0.317737C27.5703 0.317417 26.7293 1.13662 25.7274 2.13822Z" fill="white"/>
<path d="M14.2758 1.78015C7.89921 2.20415 2.45857 6.67231 0.827846 12.8221C0.513286 14.0141 0.381766 14.8841 0.330566 16.1859C0.0819261 22.7526 4.22113 28.7709 10.4512 30.8771C18.1878 33.5024 26.5171 29.5098 29.3616 21.8166C30.3414 19.1766 30.5098 15.8787 29.815 13.1145C29.5664 12.1273 29.1642 11.0013 28.784 10.248L28.4621 9.60447H26.6998C25.3178 9.60447 24.952 9.62655 24.9958 9.69215C25.0323 9.74335 25.2006 10.0138 25.376 10.2845C25.7856 10.9206 26.4218 12.2589 26.6557 12.9757C28.3376 18.08 26.385 23.6813 21.8806 26.6941C18.897 28.6976 14.992 29.2243 11.577 28.0982C7.40929 26.7235 4.38177 23.2864 3.51169 18.9501C3.29953 17.8826 3.27777 15.7251 3.46785 14.6867C4.00161 11.8201 5.44225 9.33375 7.61409 7.52767C11.5629 4.24415 17.0694 3.82751 21.479 6.48927L21.9104 6.75263L22.1517 6.51871L22.393 6.28479V4.90239V3.52767L21.5738 3.13279C19.3507 2.07967 16.8208 1.61183 14.2758 1.78015Z" fill="white"/>
</g>
<defs>
<clipPath id="clip0_1_17">
<rect width="32" height="32" fill="white"/>
</clipPath>
</defs>
</svg>
